PathFileType	4	(X/Y/Z)	0_coords_data.trc
DataRate	CameraRate	NumFrames	NumMarkers	Units	OrigDataRate	OrigDataStartFrame	OrigNumFrames
30.0	30.0	6	21	m	30.0	10	57
Frame#	Time	THUMB_TIP	THUMB_IP	THUMB_MCP	THUMB_CMC	INDEX_TIP	INDEX_DIP	INDEX_PIP	INDEX_MCP	MIDDLE_TIP	MIDDLE_DIP	MIDDLE_PIP	MIDDLE_MCP	RING_TIP	RING_DIP	RING_PIP	RING_MCP	PINKY_TIP	PINKY_DIP	PINKY_PIP	PINKY_MCP	WRIST
X1	Y1	Z1	X2	Y2	Z2	X3	Y3	Z3	X4	Y4	Z4	X5	Y5	Z5	X6	Y6	Z6	X7	Y7	Z7	X8	Y8	Z8	X9	Y9	Z9	X10	Y10	Z10	X11	Y11	Z11	X12	Y12	Z12	X13	Y13	Z13	X14	Y14	Z14	X15	Y15	Z15	X16	Y16	Z16	X17	Y17	Z17	X18	Y18	Z18	X19	Y19	Z19	X20	Y20	Z20	X21	Y21	Z21
9	0.3	-0.0027156798839569093	-0.10596099853515625	0.9889089965820312	0.001452329993247985	-0.07834110260009766	0.997885986328125	-0.008782469749450683	-0.05861330032348633	1.02125	-0.010514699935913085	-0.019641700744628905	1.0360899658203124	-0.0032430100440979	-0.024589899063110352	1.0084199829101563	0.013853500366210938	-0.021799400329589845	0.997156982421875	0.019131200790405273	-0.024061700820922852	0.971510009765625	-0.024697999954223632	-0.03189430046081543	0.9734769897460938	0.0034635798931121824	-0.007226510047912598	1.0095999755859375	0.013510499954223633	-0.0029049499034881593	1.0006799926757812	0.02001289939880371	-0.000296229988336563	0.9713579711914062	-0.02755820083618164	-0.005608099937438965	0.9685560302734375	-0.0022251400947570802	0.008156450271606445	1.013969970703125	0.009631799697875977	0.014595199584960937	1.0074500122070313	0.019299699783325196	0.021833499908447265	0.9821339721679687	-0.02720400047302246	0.020224700927734374	0.9733759765625	-0.006011980056762695	0.026159299850463866	1.0125800170898438	0.0064335899353027345	0.03315399932861328	1.0031500244140625	0.00846947956085205	0.04318220138549805	0.984989013671875	-0.028347000122070313	0.043020401000976566	0.9817449951171875	-0.03282379913330078	0.00701752996444702	1.0551199951171875
10	0.3333333333333333	-0.0027749500274658204	-0.10616799926757813	0.9890679931640625	0.0014559099674224848	-0.07853510284423829	0.998072998046875	-0.008740839958190917	-0.058770099639892576	1.0213200073242188	-0.010470499992370605	-0.019707799911499024	1.0362900390625	-0.0029885098934173578	-0.024752300262451173	1.0086799926757812	0.01400790023803711	-0.02208679962158203	0.997333984375	0.019256900787353516	-0.024392799377441408	0.9716740112304687	-0.02461160087585449	-0.03212540054321289	0.97352197265625	0.003656810045242309	-0.0073785300254821775	1.0097000122070312	0.01365820026397705	-0.003119889974594116	1.0010499877929688	0.020168100357055664	-0.0006419460177421571	0.9713909912109375	-0.027449399948120116	-0.005807509899139404	0.9685880126953125	-0.001905150055885315	0.007977220058441162	1.0144000244140625	0.009852160453796386	0.014359299659729003	1.0075399780273437	0.01945389938354492	0.02149679946899414	0.9819420166015626	-0.027081499099731444	0.020024499893188476	0.9733920288085938	-0.005879189968109131	0.025990699768066405	1.0140399780273437	0.006759689807891846	0.03276279830932617	1.0032899780273437	0.008733969688415527	0.042860198974609375	0.9849500122070313	-0.028109399795532227	0.042827899932861326	0.98177197265625	-0.032775299072265625	0.006836800098419189	1.0550799560546875
11	0.36666666666666664	-0.002615689992904663	-0.10633499908447265	0.989135009765625	0.0016047199964523311	-0.0786958999633789	0.9981099853515625	-0.00862183952331543	-0.05893479919433594	1.0211400146484375	-0.010375300407409667	-0.019965599060058594	1.036280029296875	-0.002903359889984131	-0.02497760009765625	1.0085999755859374	0.013968799591064453	-0.02222529983520508	0.997177978515625	0.0192362003326416	-0.024499000549316405	0.9715789794921875	-0.024516199111938478	-0.03236019897460937	0.9736209716796875	0.0037538599967956543	-0.007599830150604248	1.0094099731445312	0.013831100463867187	-0.003229769945144653	1.0008699951171875	0.020091800689697265	-0.0007497500181198121	0.9712830200195313	-0.02730660057067871	-0.006028329849243164	0.9687139892578125	-0.002177560091018676	0.007880169868469239	1.0140599975585938	0.009933520317077636	0.014187999725341797	1.0073300170898438	0.019493099212646484	0.021386800765991212	0.9817949829101562	-0.027091400146484375	0.019769100189208983	0.9733889770507812	-0.005926000118255615	0.025770700454711915	1.0126199951171875	0.006640399932861328	0.032589801788330076	1.0036199951171876	0.00869225025177002	0.04266510009765625	0.9849990234375	-0.028161300659179687	0.04260260009765625	0.9817150268554687	-0.03244430160522461	0.006514530181884765	1.0549599609375
12	0.4	-0.002694750070571899	-0.10656999969482422	0.989031982421875	0.001575090050697326	-0.07884429931640625	0.9980289916992188	-0.008620610237121582	-0.05910749816894531	1.0210700073242187	-0.010372400283813477	-0.02013909912109375	1.0361500244140625	-0.0031858499050140382	-0.02530850028991699	1.0083200073242187	0.014037799835205079	-0.022406200408935546	0.99718701171875	0.01923699951171875	-0.024784900665283202	0.9716599731445312	-0.0245674991607666	-0.03250540161132812	0.9735289916992188	0.003529649972915649	-0.0079583101272583	1.009469970703125	0.013742300033569336	-0.003466609954833984	1.00097998046875	0.020136600494384767	-0.0009722880125045771	0.97125	-0.02744510078430176	-0.006221829891204834	0.9686079711914063	-0.001638350009918213	0.007706329822540283	1.0142000122070312	0.009931249618530274	0.014014300346374511	1.00722998046875	0.01946929931640625	0.021190500259399413	0.9820570068359376	-0.026872200012207033	0.019611799240112304	0.9731510009765625	-0.00596943998336792	0.0256422004699707	1.0123400268554688	0.006630320072174073	0.03247000122070313	1.0033699951171875	0.008667770385742188	0.042500198364257814	0.9848079833984374	-0.028070999145507813	0.04240459823608399	0.9816480102539062	-0.032235801696777346	0.006616769790649414	1.054719970703125
13	0.43333333333333335	-0.0028778300285339353	-0.10679100036621093	0.9891069946289063	0.001350980043411254	-0.07911070251464844	0.9980029907226563	-0.008666489601135254	-0.05936669921875	1.021260009765625	-0.010399499893188476	-0.020241300582885743	1.03622998046875	-0.003107719898223877	-0.025425300598144532	1.0084600219726563	0.013869099617004395	-0.022663700103759767	0.9970910034179687	0.019101999282836915	-0.025078699111938475	0.9715590209960937	-0.024683700561523438	-0.0328224983215332	0.973551025390625	0.0036710000038146975	-0.00802735996246338	1.0096199951171876	0.013612700462341308	-0.00375268006324768	1.0007999877929687	0.02000670051574707	-0.0013302600383758541	0.9711290283203124	-0.027729799270629883	-0.006466539859771727	0.9685540161132813	-0.0016660699844360351	0.00757144021987915	1.0141400146484374	0.009825539588928223	0.013741299629211426	1.0070999755859376	0.019429800033569335	0.02087220001220703	0.98189599609375	-0.02706559944152832	0.019307100296020507	0.9732449951171875	-0.006040410041809082	0.025383399963378905	1.0126799926757812	0.006735089778900146	0.03210169982910156	1.0033599853515625	0.008843640327453613	0.04210720062255859	0.9849140014648438	-0.028045900344848634	0.0421421012878418	0.9815889892578125	-0.032584598541259766	0.006450049877166748	1.054300048828125
14	0.4666666666666667	-0.00310069990158081	-0.10711299896240234	0.9891199951171875	0.001151610016822815	-0.07944159698486328	0.9979760131835937	-0.008914190292358399	-0.05965349960327149	1.0212000122070313	-0.010521200180053711	-0.020681699752807616	1.0360799560546874	-0.003318799972534179	-0.0258031005859375	1.0083699951171874	0.013758999824523926	-0.02305150032043457	0.9970590209960938	0.01897480010986328	-0.025585199356079103	0.9714409790039062	-0.02488789939880371	-0.0331427001953125	0.9734019775390625	0.003232889890670776	-0.008603659629821778	1.0097100219726562	0.013581399917602538	-0.004114910125732422	1.0008300170898436	0.019935199737548828	-0.001770959973335266	0.9710499877929688	-0.027793100357055664	-0.006770649909973145	0.968468994140625	-0.001636719942092895	0.007105279922485352	1.0138200073242187	0.00988545036315918	0.013379500389099122	1.0071699829101564	0.019386299133300783	0.020390100479125976	0.9817349853515625	-0.027085500717163084	0.019035200119018554	0.9732069702148437	-0.006006820201873779	0.025138299942016603	1.0123800048828124	0.006671020030975342	0.0317189998626709	1.003280029296875	0.008843660354614258	0.041693099975585936	0.984583984375	-0.027978300094604492	0.0418401985168457	0.9815180053710938	-0.03260689926147461	0.006372330188751221	1.0543299560546875
